<svg fill="none" xmlns="http://www.w3.org/2000/svg" viewBox="0 0 284 196">
  <ellipse cx="87" cy="16.5" rx="84" ry="14.5" fill="#fff"/>
  <ellipse cx="147" cy="113.5" rx="73.5" ry="11" transform="rotate(90 147 113.5)" fill="#F5F5F5"/>
  <path fill="#F5F5F5" d="M272 40v147H147V40z"/>
  <ellipse cx="87" cy="179.5" rx="84" ry="14.5" fill="#fff"/>
  <ellipse cx="271" cy="113.5" rx="73.5" ry="11" transform="rotate(90 271 113.5)" fill="#F0F0F0"/>
  <ellipse cx="271.5" cy="112.5" rx="23.5" ry="3.5" transform="rotate(90 271.5 112.5)" fill="#CEBCBC"/>
  <path fill="#fff" d="M3 16h168v163H3z"/>
  <path d="M171 87h89" stroke="#E0E0E0" stroke-dasharray="3 3"/>
  <path d="M171 170h92" stroke="#E0E0E0" stroke-dasharray="3 3"/>
  <path d="M37 5v186" stroke="#EEE" stroke-dasharray="3 3"/>
  <path d="M158 9v178" stroke="#EEE" stroke-dasharray="3 3"/>
  <path d="M171.001 16c0-15.5-167.417-20-168 0-.583 20 0 146.499 0 163 0 16.5 112.499 18 156 8h112.5c13.5 0 13-147 0-147h-100.5V16z" stroke="#000" stroke-width="4"/>
</svg>
